HIERARCHY
ROOT Hips
{
	OFFSET 0.000000 0.000000 0.000000
	CHANNELS 6 Xposition Yposition Zposition Zrotation Yrotation Xrotation 
	JOINT LeftUpLeg_virtual
	{
		OFFSET 0.000000 0.000000 0.000000
		CHANNELS 3 Zrotation Yrotation Xrotation
		JOINT LeftUpLeg
		{
			OFFSET 10.205400 -3.823500 0.155100
			CHANNELS 3 Zrotation Yrotation Xrotation
			JOINT LeftLeg
			{
				OFFSET 0.708757 -12.982077 0.567790
				CHANNELS 3 Zrotation Yrotation Xrotation
				JOINT LeftFoot
				{
					OFFSET -0.708756 -10.717838 -2.184338
					CHANNELS 3 Zrotation Yrotation Xrotation
					JOINT LeftToeBase
					{
						OFFSET 0.108149 -7.191104 7.560241
						CHANNELS 3 Zrotation Yrotation Xrotation
						End Site
						{
							OFFSET 0.000000 0.000000 0.000000
						}
					}
				}
			}
		}
	}
	JOINT RightUpLeg_virtual
	{
		OFFSET 0.000000 0.000000 0.000000
		CHANNELS 3 Zrotation Yrotation Xrotation
		JOINT RightUpLeg
		{
			OFFSET -10.205400 -3.823500 0.005500
			CHANNELS 3 Zrotation Yrotation Xrotation
			JOINT RightLeg
			{
				OFFSET -0.708756 -12.982134 0.610632
				CHANNELS 3 Zrotation Yrotation Xrotation
				JOINT RightFoot
				{
					OFFSET 0.708754 -10.717769 -1.945823
					CHANNELS 3 Zrotation Yrotation Xrotation
					JOINT RightToeBase
					{
						OFFSET -0.108140 -7.191069 7.372968
						CHANNELS 3 Zrotation Yrotation Xrotation
						End Site
						{
							OFFSET 0.000000 0.000000 0.000000
						}
					}
				}
			}
		}
	}
	JOINT Spine_virtual
	{
		OFFSET 0.000000 0.000000 0.000000
		CHANNELS 3 Zrotation Yrotation Xrotation
		JOINT Spine
		{
			OFFSET 0.000000 6.876099 0.125700
			CHANNELS 3 Zrotation Yrotation Xrotation
			JOINT Spine1
			{
				OFFSET 0.000000 8.022060 0.146608
				CHANNELS 3 Zrotation Yrotation Xrotation
				JOINT Spine2
				{
					OFFSET 0.000000 9.168068 0.167552
					CHANNELS 3 Zrotation Yrotation Xrotation
					JOINT Neck_virtual
					{
						OFFSET 0.000000 0.000000 0.000000
						CHANNELS 3 Zrotation Yrotation Xrotation
						JOINT Neck
						{
							OFFSET 0.000000 10.314075 0.188496
							CHANNELS 3 Zrotation Yrotation Xrotation
							JOINT Head
							{
								OFFSET 0.000000 7.643700 -2.377400
								CHANNELS 3 Zrotation Yrotation Xrotation
								End Site
								{
									OFFSET 0.000000 0.000000 0.000000
								}
							}
						}
					}
					JOINT LeftShoulder_virtual
					{
						OFFSET 0.000000 0.000000 0.000000
						CHANNELS 3 Zrotation Yrotation Xrotation
						JOINT LeftShoulder
						{
							OFFSET 4.392200 8.824978 0.174984
							CHANNELS 3 Zrotation Yrotation Xrotation
							JOINT LeftArm
							{
								OFFSET 8.771219 -2.981674 -0.026999
								CHANNELS 3 Zrotation Yrotation Xrotation
								JOINT LeftForeArm
								{
									OFFSET 8.512804 0.000000 -0.000000
									CHANNELS 3 Zrotation Yrotation Xrotation
									JOINT LeftHand
									{
										OFFSET 18.484802 0.000000 -0.000000
										CHANNELS 3 Zrotation Yrotation Xrotation
										End Site
										{
											OFFSET 0.000000 0.000000 0.000000
										}
									}
								}
							}
						}
					}
					JOINT RightShoulder_virtual
					{
						OFFSET 0.000000 0.000000 0.000000
						CHANNELS 3 Zrotation Yrotation Xrotation
						JOINT RightShoulder
						{
							OFFSET -4.392200 8.824993 0.141379
							CHANNELS 3 Zrotation Yrotation Xrotation
							JOINT RightArm
							{
								OFFSET -8.771282 -2.981682 -0.094208
								CHANNELS 3 Zrotation Yrotation Xrotation
								JOINT RightForeArm
								{
									OFFSET -8.494598 0.000000 0.000000
									CHANNELS 3 Zrotation Yrotation Xrotation
									JOINT RightHand
									{
										OFFSET -18.483803 0.000000 0.000001
										CHANNELS 3 Zrotation Yrotation Xrotation
										End Site
										{
											OFFSET 0.000000 0.000000 0.000000
										}
									}
								}
							}
						}
					}
				}
			}
		}
	}
}
MOTION
Frames: 10
Frame Time: 0.033333
6.543440 35.206997 -60.303867 179.580304 -23.547463 -179.916431 -0.769020 1.723734 38.988158 4.644972 1.951851 -56.589784 1.920684 8.316905 10.129180 -9.007542 4.175882 17.498420 0.000000 0.000000 0.000000 6.792094 -1.053561 38.811700 -1.219406 -6.394290 -59.950455 -0.631264 1.907574 29.695204 3.058167 5.214104 9.584699 0.000000 0.000000 0.000000 4.878905 -0.808954 53.479121 6.234169 1.914560 37.379740 -3.364417 -7.796230 11.960522 0.010908 -0.056847 -0.007486 -1.893957 -8.969649 12.858232 1.765318 -3.564842 3.534732 0.000000 0.000000 0.000000 -0.744451 -7.568768 6.766337 5.562628 0.180193 0.708751 2.108320 -20.678592 -64.349726 -45.551966 -71.931686 28.291299 0.000000 0.000000 0.000000 -4.695017 -6.306920 6.943093 15.441519 19.750166 -7.191356 12.924445 39.051128 11.477096 -16.246469 36.151334 -4.985859 0.000000 0.000000 0.000000 
6.542036 35.236229 -60.304466 179.551248 -23.731129 -179.926977 -0.910206 1.730772 38.845902 4.921810 1.870781 -56.492993 1.921430 8.315776 10.117353 -8.997541 4.194791 17.737725 0.000000 0.000000 0.000000 6.671683 -1.087457 38.633251 -1.138676 -6.361740 -59.619628 -0.606881 1.898406 29.528663 2.914405 5.259331 9.692332 0.000000 0.000000 0.000000 4.737543 -0.856396 53.249616 5.921036 1.953416 37.152257 -3.309429 -7.605433 12.095060 0.021642 -0.166990 0.013590 -1.872326 -8.711346 12.833233 1.669959 -3.626652 3.393967 0.000000 0.000000 0.000000 -0.722360 -7.338306 6.785329 5.350807 0.061862 0.576121 2.296409 -21.369620 -64.471733 -45.247893 -72.031612 28.147589 0.000000 0.000000 0.000000 -4.676389 -6.094951 6.902233 15.534845 19.539325 -7.103053 12.290340 37.737533 9.923035 -16.250041 35.796079 -5.099672 0.000000 0.000000 0.000000 
6.539790 35.258965 -60.321533 179.535457 -23.891915 -179.950322 -1.029546 1.755929 38.712679 5.220701 1.779201 -56.416024 1.904244 8.299881 10.216343 -8.998387 4.149228 17.838747 0.000000 0.000000 0.000000 6.570837 -1.086205 38.466946 -1.063238 -6.334157 -59.331866 -0.588408 1.858422 29.509269 2.795317 5.286745 9.748285 0.000000 0.000000 0.000000 4.662035 -0.831052 53.035275 5.687147 1.977061 36.763650 -3.322109 -7.547489 12.232612 0.052658 -0.108395 0.002007 -1.875332 -8.551457 12.892645 1.570277 -3.709007 3.197894 0.000000 0.000000 0.000000 -0.694129 -7.125845 6.862479 5.078659 -0.070621 0.478397 2.439570 -21.909744 -64.517106 -44.578169 -71.951077 27.718806 0.000000 0.000000 0.000000 -4.645457 -5.880308 6.990312 15.661443 19.295173 -7.022659 12.105513 36.869655 8.304878 -16.295858 35.426347 -5.266242 0.000000 0.000000 0.000000 
6.542954 35.274643 -60.354046 179.478370 -24.158789 -179.741400 -1.187599 1.588305 38.513879 5.510003 1.719592 -56.453508 1.906043 8.377436 10.370316 -9.139340 4.069786 17.893991 0.000000 0.000000 0.000000 6.470331 -1.081793 38.241078 -1.003106 -6.332811 -59.139002 -0.584343 1.744861 29.509720 2.714741 5.291494 9.759557 0.000000 0.000000 0.000000 4.493928 -0.870841 52.644875 5.535320 2.076445 36.190556 -3.320226 -7.265051 12.395340 0.043880 -0.055792 0.066095 -1.838681 -8.520658 13.016938 1.492020 -3.822407 2.949346 0.000000 0.000000 0.000000 -0.712260 -6.968898 7.099104 4.704471 -0.465402 0.204904 2.364667 -22.410964 -64.443210 -43.889966 -71.719466 27.392911 0.000000 0.000000 0.000000 -4.639979 -5.805864 7.105164 15.925775 18.968865 -6.911132 12.434707 36.422151 6.485758 -16.077102 35.050796 -5.455035 0.000000 0.000000 0.000000 
6.549590 35.296097 -60.378834 179.474791 -24.406265 -179.904860 -1.238651 1.494138 38.434875 5.736722 1.744259 -56.326340 1.902431 8.379605 10.611949 -9.262020 3.950657 17.825667 0.000000 0.000000 0.000000 6.379690 -1.202950 38.143229 -0.956855 -6.306311 -58.744183 -0.564878 1.595961 29.412280 2.698813 5.300819 9.831620 0.000000 0.000000 0.000000 4.302108 -0.898851 52.405579 5.358890 2.138185 35.622090 -3.326421 -7.068979 12.594147 0.044960 -0.081699 0.017688 -1.898142 -8.263778 13.153476 1.332145 -4.029698 2.711413 0.000000 0.000000 0.000000 -0.753073 -6.804657 7.190906 4.296814 -0.919470 0.308220 2.133902 -22.708893 -64.010026 -42.582196 -71.534163 26.592399 0.000000 0.000000 0.000000 -4.652791 -5.527553 7.259438 16.143950 18.771552 -6.821074 13.286321 36.259886 5.146944 -15.876063 34.740207 -5.567303 0.000000 0.000000 0.000000 
6.565040 35.327591 -60.391758 179.392091 -24.604665 -179.709818 -1.463181 1.274958 38.157193 5.937358 1.845537 -56.317765 2.027591 8.555614 10.737267 -9.358270 3.813377 18.023148 0.000000 0.000000 0.000000 6.300400 -1.345491 37.802099 -0.910709 -6.311871 -58.547740 -0.552512 1.454692 29.318635 2.750622 5.314850 10.031054 0.000000 0.000000 0.000000 4.131481 -0.983316 51.906689 5.176053 2.212544 34.889142 -3.335190 -6.815396 12.831151 0.044602 -0.057639 0.004911 -1.882578 -8.028643 13.369294 1.221433 -4.287631 2.406937 0.000000 0.000000 0.000000 -0.756812 -6.502370 7.514928 3.845480 -1.567871 -0.030190 1.529815 -23.162152 -63.160057 -41.200504 -71.002064 25.865030 0.000000 0.000000 0.000000 -4.623613 -5.339500 7.450639 16.271662 18.579337 -6.809809 14.514169 36.460178 4.239658 -15.531638 34.450112 -5.723330 0.000000 0.000000 0.000000 
6.584262 35.374332 -60.380066 179.324513 -24.846661 -179.693999 -1.693306 0.914827 37.970005 6.046271 2.034853 -56.136410 2.154830 8.791850 10.855340 -9.512257 3.625857 17.953791 0.000000 0.000000 0.000000 6.188742 -1.644478 37.516685 -0.835517 -6.332467 -58.196757 -0.517443 1.386519 28.990171 2.845583 5.332208 10.363047 0.000000 0.000000 0.000000 3.857759 -1.094681 51.401818 4.971783 2.188723 34.113588 -3.295404 -6.639118 13.096042 0.065270 -0.106223 -0.005679 -1.913461 -7.568171 13.535791 1.051723 -4.667615 2.047200 0.000000 0.000000 0.000000 -0.758876 -6.271107 7.629696 3.457880 -2.369185 0.232228 0.849787 -23.229629 -61.785024 -39.231319 -70.669672 24.687510 0.000000 0.000000 0.000000 -4.609225 -5.031410 7.636591 16.235271 18.521634 -6.821905 16.115065 36.867134 3.997893 -15.085419 34.413888 -5.748312 0.000000 0.000000 0.000000 
6.594523 35.428463 -60.355045 179.282562 -24.965631 -179.672374 -1.892903 0.745957 37.758601 6.065536 2.200941 -55.841748 2.278066 8.596724 10.880745 -9.523680 3.462895 18.084801 0.000000 0.000000 0.000000 6.110850 -1.870940 37.112769 -0.728907 -6.374759 -57.821854 -0.461553 1.441387 28.711008 2.965822 5.335603 10.767627 0.000000 0.000000 0.000000 3.763663 -1.194781 50.812567 4.763162 2.218811 33.269793 -3.276205 -6.418051 13.336074 0.055417 -0.207458 -0.016241 -1.832815 -7.447939 13.674301 1.135062 -4.880204 1.644606 0.000000 0.000000 0.000000 -0.679583 -5.952036 7.895949 3.187319 -3.268537 0.261449 -0.266141 -23.342959 -59.815887 -36.947539 -70.021501 23.339656 0.000000 0.000000 0.000000 -4.511262 -4.748861 7.797639 16.098742 18.490970 -6.844605 18.095360 37.381458 4.510668 -14.563551 34.687976 -5.777865 0.000000 0.000000 0.000000 
6.619310 35.479816 -60.340504 179.256826 -25.020077 -179.636311 -2.070438 0.622609 37.349441 5.994463 2.315451 -55.440038 2.387203 8.333703 10.786292 -9.516363 3.273787 18.117809 0.000000 0.000000 0.000000 6.036933 -2.010790 36.637920 -0.592342 -6.471220 -57.301462 -0.399885 1.572622 28.403823 3.089834 5.311365 11.095626 0.000000 0.000000 0.000000 3.517868 -1.214186 50.086798 4.515729 2.128663 32.356560 -3.201347 -6.206948 13.551423 0.055078 0.014099 0.009375 -1.767186 -7.109438 13.816428 1.146589 -5.406684 1.161839 0.000000 0.000000 0.000000 -0.599272 -5.640865 8.228368 2.985595 -4.348431 0.221742 -1.664048 -23.398903 -57.379238 -34.769495 -69.169435 22.178189 0.000000 0.000000 0.000000 -4.386350 -4.474363 7.990936 15.887455 18.430393 -6.858797 20.324077 38.059733 5.619622 -13.940560 35.066837 -5.841569 0.000000 0.000000 0.000000 
6.637408 35.523300 -60.347378 179.258001 -25.303068 -179.669315 -2.129506 0.327966 36.624239 5.884813 2.386035 -54.745066 2.531095 8.011497 11.131899 -9.528321 3.018748 17.869288 0.000000 0.000000 0.000000 5.976804 -2.218724 36.069693 -0.472136 -6.583099 -56.528773 -0.335328 1.691790 28.145914 3.223134 5.255797 11.219753 0.000000 0.000000 0.000000 3.453639 -1.372985 49.247508 4.532665 2.097812 31.441116 -3.026503 -5.858894 13.713944 0.067500 -0.099307 -0.011418 -1.681864 -6.783292 13.882845 1.423464 -5.874179 0.633759 0.000000 0.000000 0.000000 -0.574149 -5.430592 8.436781 2.864937 -5.569536 0.430455 -2.954232 -23.449785 -54.941055 -31.798222 -68.125120 20.303912 0.000000 0.000000 0.000000 -4.359301 -4.225055 8.095829 15.709000 18.419702 -6.834117 22.740814 38.424790 6.985857 -13.319855 35.602009 -5.840039 0.000000 0.000000 0.000000 
